<svg xmlns="http://www.w3.org/2000/svg" viewBox="0 0 33.378 29.936">
    <path fill="currentColor" d="M8.427 29.936A2.234 2.234 0 0 1 6.2 27.7V13.934a2.233 2.233 0 0 1 2.23-2.23h22.715a2.235 2.235 0 0 1 2.232 2.23V27.7a2.235 2.235 0 0 1-2.232 2.232zm-.522-16V27.7a.523.523 0 0 0 .522.522h22.718a.523.523 0 0 0 .523-.522V13.934a.524.524 0 0 0-.523-.522H8.427a.524.524 0 0 0-.527.522zm18.423 11.18v-1.708h3.442v1.708zm-5.508 0v-1.708h3.442v1.708zm-5.508 0v-1.708h3.442v1.708zm-5.508 0v-1.708h3.442v1.708zm16.178-3.443a3.264 3.264 0 1 1 0-6.527h.689a3.264 3.264 0 1 1 0 6.527zm-1.555-3.262a1.556 1.556 0 0 0 1.555 1.554h.689a1.556 1.556 0 0 0 0-3.112h-.689a1.557 1.557 0 0 0-1.553 1.559zm-22.2-.18A2.234 2.234 0 0 1 0 16V2.232A2.234 2.234 0 0 1 2.232 0h22.719a2.232 2.232 0 0 1 2.231 2.232v8.949h-1.708v-1.9H1.71V16a.525.525 0 0 0 .522.525h3.442v1.708zM25.474 7.573V5.149H1.71v2.424zm0-4.131v-1.21a.525.525 0 0 0-.523-.524H2.232a.524.524 0 0 0-.522.524v1.21z"></path>
</svg>
