<svg xmlns="http://www.w3.org/2000/svg" viewBox="0 0 30.76 34.178">
    <path fill="currentColor" d="M0 18.8A15.389 15.389 0 0 1 14.242 3.479v-1.2h-1.235a.529.529 0 0 1-.475-.57V.57a.529.529 0 0 1 .475-.57h4.748a.528.528 0 0 1 .474.57v1.139a.529.529 0 0 1-.474.57H16.52v1.2a15.28 15.28 0 0 1 8.187 3.119l.732-.732a.57.57 0 0 1 .808 0l2.067 2.067a.572.572 0 0 1 0 .809l-.732.733a15.279 15.279 0 0 1 3.178 9.324A15.4 15.4 0 0 1 15.38 34.18 15.4 15.4 0 0 1 0 18.8zm1.7 0a13.7 13.7 0 0 0 13.682 13.684A13.7 13.7 0 0 0 29.065 18.8 13.7 13.7 0 0 0 15.382 5.118 13.7 13.7 0 0 0 1.698 18.8zm12.772 10.824v-2.279h1.82v2.279zm-1.442-8.472a.908.908 0 0 1 0-1.286l1.065-1.066-1.636-1.635a.91.91 0 0 1 0-1.286.911.911 0 0 1 1.288 0l1.635 1.635 5.622-5.622a.909.909 0 0 1 1.286 0 .912.912 0 0 1 0 1.287L16.668 18.8l.5.495a.912.912 0 0 1 0 1.287.9.9 0 0 1-.644.266.9.9 0 0 1-.643-.266l-.5-.5-1.066 1.066a.908.908 0 0 1-.644.267.9.9 0 0 1-.642-.266zm10.9-1.442v-1.819h2.279v1.819zm-19.367 0v-1.819h2.278v1.819zm9.913-9.454V7.978h1.82v2.278z"></path>
</svg>
