<svg xmlns="http://www.w3.org/2000/svg" viewBox="0 0 34.761 24.739">
    <g fill="currentColor">
        <path d="m21.76 19.815-.755.551h-7.248l-.755-.551h-13v2.792a2.134 2.134 0 0 0 2.132 2.132h30.5a2.134 2.134 0 0 0 2.131-2.132v-2.792zm11.567 2.792a.7.7 0 0 1-.7.7h-30.5a.7.7 0 0 1-.7-.7v-1.358h11.1l.756.552h8.182l.755-.552h11.1zM16.598 1.643h1.566v1.434h-1.566z"></path>
        <path d="M4.115 4.699h26.534v13.893h1.435V1.985A1.987 1.987 0 0 0 30.099 0H4.665A1.987 1.987 0 0 0 2.68 1.985v16.607h1.435zm26.534-2.714v1.279H4.115V1.985a.551.551 0 0 1 .55-.55h25.434a.551.551 0 0 1 .549.55z"></path>
        <path d="M13.773 6.08v11.842l2.793-2.75-.61-1.414-.748.737V9.616l3.365 3.464h-2.375l2.257 5.23 1.318-.57-1.393-3.226h3.587z"></path>
    </g>
</svg>
