<svg xmlns="http://www.w3.org/2000/svg" viewBox="0 0 32.116 30.772">
    <g fill="currentColor">
        <path d="M21.373 7.396zm-.615-.615a.616.616 0 0 0-.616.615.606.606 0 0 0 .616.6.61.61 0 1 0 0-1.22zm-9.4 7.263a.616.616 0 0 0 .616-.615.616.616 0 0 0-1.231 0 .615.615 0 0 0 .615.615z"></path>
        <path d="M31.829 11.207a.615.615 0 1 0-.658-1.04l-6.44 4.08v-1.9l7.1-4.5a.615.615 0 0 0 0-1.042L21.088.091a.61.61 0 0 0-.658 0l-7.021 4.512-.413-.259a.612.612 0 0 0-.645-.006l-4.976 3a.616.616 0 0 0-.028 1.037l.08.052L.295 12.84a.616.616 0 0 0 0 1.045l10.742 6.714a.615.615 0 0 0 .655 0l6.441-4.08v1.912l-6.756 4.268L.969 15.544a.616.616 0 0 0-.7 1.014l10.742 7.385a.613.613 0 0 0 .348.108.628.628 0 0 0 .33-.1l6.441-4.069v1.891l-6.756 4.278L.966 18.895a.616.616 0 0 0-.7 1.015l10.742 7.385a.614.614 0 0 0 .678.013l6.441-4.079v1.9l-6.756 4.28L.963 22.253a.616.616 0 0 0-.7 1.015l10.742 7.385a.617.617 0 0 0 .678.012l6.516-4.126a.611.611 0 0 0 .246.253.618.618 0 0 0 .628-.023l5.372-3.464a.618.618 0 0 0 .282-.518v-.383l7.1-4.5a.615.615 0 1 0-.658-1.04l-6.44 4.079v-1.9l7.1-4.5a.615.615 0 1 0-.658-1.04l-6.44 4.079v-1.9zm-20.474 8.152L1.78 13.375l6.761-4.183.9.61-4.227 2.673.822.52a.825.825 0 0 1 .183.146.769.769 0 0 1-.176.144l-.824.521 5.379 3.4.328-.208a1.344 1.344 0 0 1 1.449 0l.329.208 3.978-2.514.986.667zm-4.026-6.766 3.227-2.04 5.014 3.389-2.894 1.83a2.6 2.6 0 0 0-2.046 0l-3.3-2.085a1.14 1.14 0 0 0 0-1.09zm16.17 9.871-4.141 2.671v-9.79a.614.614 0 0 0-.271-.51L8.91 7.957l-.08-.054 3.827-2.308 10.841 6.8zm1.285-14.346-2.886 1.824-5.2-3.267 2.739-1.733a2.613 2.613 0 0 0 2.054 0l3.293 2.082a1.144 1.144 0 0 0 0 1.094zm-.711 3.188-1.018-.64 3.84-2.427-.823-.52a.745.745 0 0 1-.181-.149.8.8 0 0 1 .181-.146l.823-.52-5.378-3.4-.33.208a1.372 1.372 0 0 1-1.455 0l-.329-.208-3.866 2.443-.982-.616 6.207-3.989 9.583 5.989z"></path>
    </g>
</svg>
