<svg xmlns="http://www.w3.org/2000/svg" width="390.118" height="445.311" viewBox="0 0 390.118 445.311"><defs><style>.a{fill:#a4e902;}.a,.b,.c{opacity:0.28;}.b{fill:#192966;}.c{fill:#00d7f4;}</style></defs><g transform="translate(-1170.001 -340)"><path class="a" d="M-8737.28,135.5a134.852,134.852,0,0,1,20.812-72.191l-10.27-36.2,30.684,11.068A135.051,135.051,0,0,1-8601.78,0a135.5,135.5,0,0,1,135.5,135.5A135.5,135.5,0,0,1-8601.78,271,135.5,135.5,0,0,1-8737.28,135.5Z" transform="translate(9907.281 340)"/><path class="b" d="M-8741,78.493a76.4,76.4,0,0,1,76.4-76.4,76.03,76.03,0,0,1,40.7,11.734l20.412-5.791-6.239,17.3a76.145,76.145,0,0,1,21.521,53.152,76.4,76.4,0,0,1-76.4,76.4A76.4,76.4,0,0,1-8741,78.493Z" transform="translate(10148.328 415.16)"/><path class="c" d="M-8719.8,176.226A135.5,135.5,0,0,1-8607.169,21.2,135.5,135.5,0,0,1-8452.14,133.833a134.842,134.842,0,0,1-9.262,74.556l15.808,34.154-32.039-6.132a135.052,135.052,0,0,1-87.143,52.45,136.613,136.613,0,0,1-21.365,1.688A135.522,135.522,0,0,1-8719.8,176.226Z" transform="translate(9966.773 494.763)"/></g></svg>