<svg id="wave" style="transform:rotate(180deg); transition: 0.3s" viewBox="0 0 1440 490" version="1.1"
    xmlns="http://www.w3.org/2000/svg">
    <defs>
        <linearGradient id="sw-gradient-0" x1="0" x2="0" y1="1" y2="0">
            <stop stop-color="rgba(49, 50, 118, 1)" offset="0%"></stop>
            <stop stop-color="rgba(99.198, 135.459, 234.395, 1)" offset="100%"></stop>
        </linearGradient>
    </defs>
    <path style="transform:translate(0, 0px); opacity:1" fill="url(#sw-gradient-0)" d="M0,98L120,114.3C240,131,480,163,720,179.7C960,196,1200,196,1440,196C1680,196,1920,196,2160,171.5C2400,147,2640,98,2880,73.5C3120,49,3360,49,3600,73.5C3840,98,4080,147,4320,212.3C4560,278,4800,359,5040,392C5280,425,5520,408,5760,351.2C6000,294,6240,196,6480,196C6720,196,6960,294,7200,318.5C7440,343,7680,294,7920,269.5C8160,245,8400,245,8640,220.5C8880,196,9120,147,9360,122.5C9600,98,9840,98,10080,89.8C10320,82,10560,65,10800,106.2C11040,147,11280,245,11520,261.3C11760,278,12000,212,12240,212.3C12480,212,12720,278,12960,253.2C13200,229,13440,114,13680,65.3C13920,16,14160,33,14400,49C14640,65,14880,82,15120,106.2C15360,131,15600,163,15840,196C16080,229,16320,261,16560,302.2C16800,343,17040,392,17160,416.5L17280,441L17280,490L17160,490C17040,490,16800,490,16560,490C16320,490,16080,490,15840,490C15600,490,15360,490,15120,490C14880,490,14640,490,14400,490C14160,490,13920,490,13680,490C13440,490,13200,490,12960,490C12720,490,12480,490,12240,490C12000,490,11760,490,11520,490C11280,490,11040,490,10800,490C10560,490,10320,490,10080,490C9840,490,9600,490,9360,490C9120,490,8880,490,8640,490C8400,490,8160,490,7920,490C7680,490,7440,490,7200,490C6960,490,6720,490,6480,490C6240,490,6000,490,5760,490C5520,490,5280,490,5040,490C4800,490,4560,490,4320,490C4080,490,3840,490,3600,490C3360,490,3120,490,2880,490C2640,490,2400,490,2160,490C1920,490,1680,490,1440,490C1200,490,960,490,720,490C480,490,240,490,120,490L0,490Z"></path>
</svg>
